<?xml version="1.0" standalone="no"?><!DOCTYPE svg PUBLIC "-//W3C//DTD SVG 1.1//EN" "http://www.w3.org/Graphics/SVG/1.1/DTD/svg11.dtd"><svg t="1721661015460" class="icon" viewBox="0 0 1024 1024" version="1.1" xmlns="http://www.w3.org/2000/svg" p-id="6459" xmlns:xlink="http://www.w3.org/1999/xlink" width="200" height="200"><path d="M0 0h1024v1024H0z" fill="#FFFFFF" p-id="6460"></path><path d="M186.5472 972.672a38.4 38.4 0 0 1-24.192-68.352l67.584-54.912a76.8 76.8 0 0 1 87.936-6.144 384 384 0 1 0-189.696-341.3504 373.1968 373.1968 0 0 0 59.136 215.04 38.4 38.4 0 1 1-64.896 40.96 448.8448 448.8448 0 0 1-71.04-258.4064 460.8 460.8 0 1 1 227.6864 410.0864l-68.352 54.144a38.4 38.4 0 0 1-24.1664 8.9344z m324.8384-268.8a38.4 38.4 0 1 0-38.4-38.4 38.4 38.4 0 0 0 38.5024 38.4z m38.4-153.6a72.192 72.192 0 0 1 30.72-62.976 114.688 114.688 0 1 0-184.32-90.624 38.4 38.4 0 1 0 76.8 0c0-29.568 8.832-38.4 38.4-38.4s38.4 8.832 38.4 38.4c0 13.824-4.608 18.816-21.504 34.56a147.0464 147.0464 0 0 0-55.296 119.04 38.4 38.4 0 1 0 76.8 0z" fill="#3E2AD1" p-id="6461" data-spm-anchor-id="a313x.search_index.0.i0.65bd3a81dK0pns" class="selected"></path></svg>