<svg xmlns="http://www.w3.org/2000/svg" xmlns:xlink="http://www.w3.org/1999/xlink" fill="none" version="1.1" width="22" height="28" viewBox="0 0 22 28"><defs><clipPath id="master_svg0_107_9194"><rect x="0" y="0" width="22" height="28" rx="0"/></clipPath></defs><g clip-path="url(#master_svg0_107_9194)"><g><path d="M13.7276,0.0016833C12.3569,0.0297531,10.9931,0.432978,9.78799,1.24633L3.63149,5.40289C1.9514,6.52091,0.79303,8.33644,0.440052,10.4049C0.145596,12.1315,0.403062,13.9128,1.1717,15.4669C0.644936,16.3136,0.285996,17.2649,0.11665,18.263C-0.238587,20.3752,0.225208,22.55,1.40311,24.2953C3.85816,28.0168,8.70676,29.1196,12.2122,26.7536L18.369,22.6147C20.047,21.4944,21.2046,19.6799,21.5604,17.6127C21.8537,15.8866,21.5954,14.1062,20.8263,12.5532C21.3529,11.7061,21.7126,10.7551,21.8839,9.75716C22.238,7.64492,21.7743,5.47058,20.5974,3.72483L20.5974,3.70478C18.9863,1.2626,16.3443,-0.0520022,13.7276,0.00157524L13.7276,0.0016833ZM14.2677,3.19629C15.7906,3.27036,17.1938,4.09291,18.0621,5.4206C18.7708,6.4695,19.05,7.77708,18.8364,9.04706C18.7995,9.25263,18.7506,9.45556,18.6899,9.65468L18.5719,10.0301L18.2579,9.77977C17.5293,9.21314,16.7151,8.78187,15.8501,8.50438L15.6142,8.43186L15.6353,8.18169C15.6626,7.83712,15.574,7.49343,15.3852,7.21138C15.0304,6.6837,14.4044,6.44368,13.8131,6.60855C13.6794,6.64608,13.5519,6.70513,13.4352,6.78365L7.27648,10.9329C6.97234,11.1365,6.76255,11.4657,6.69802,11.8407C6.63571,12.2246,6.72072,12.6189,6.93416,12.9361C7.28509,13.468,7.9098,13.7149,8.50385,13.5564C8.6372,13.5178,8.7645,13.4588,8.88171,13.3812L11.2424,11.7957C11.6281,11.5335,12.0502,11.3368,12.4933,11.2129C14.4774,10.6654,16.5732,11.4884,17.7411,13.2738C18.4493,14.323,18.7284,15.6303,18.5152,16.9002C18.3044,18.1469,17.6077,19.2418,16.596,19.9164L10.4371,24.073C10.0504,24.3331,9.62858,24.5295,9.18619,24.6555C7.20104,25.2014,5.10523,24.3778,3.93617,22.5925C3.22827,21.5432,2.94999,20.2357,3.16436,18.9661C3.19912,18.7617,3.24796,18.5603,3.3105,18.3634L3.42636,17.9881L3.74262,18.2382C4.46975,18.8006,5.28153,19.2285,6.14352,19.5037L6.37945,19.5761L6.35832,19.8264C6.3356,20.1693,6.42659,20.5099,6.61559,20.7893C6.96828,21.3263,7.59939,21.5739,8.19716,21.4096C8.33061,21.3715,8.45792,21.3125,8.57482,21.2344L14.7219,17.0778C15.0272,16.8743,15.2373,16.5437,15.3003,16.1674C15.3639,15.7843,15.2787,15.3903,15.0642,15.0746C14.7115,14.5376,14.0804,14.2901,13.4826,14.4544C13.349,14.4919,13.2217,14.5508,13.105,14.6293L10.7443,16.2174C10.3583,16.4768,9.9372,16.6724,9.49561,16.7977C7.51383,17.3402,5.42277,16.518,4.25495,14.737C3.54917,13.6867,3.27261,12.3795,3.48777,11.1105C3.6985,9.86386,4.39514,8.76891,5.40683,8.09425L11.5727,3.93769C11.9565,3.6788,12.3752,3.48313,12.8145,3.35736C13.2885,3.22693,13.7784,3.17271,14.2677,3.19651L14.2677,3.19629Z" fill="#FF5722" fill-opacity="1"/></g></g></svg>